<svg width="64" height="66" viewBox="0 0 64 66" fill="none" xmlns="http://www.w3.org/2000/svg">
<g clip-path="url(#clip0_16_3429)">
<path d="M62.5685 40.1184C62.4845 40.1605 62.376 40.1815 62.2745 40.164C62.0121 40.122 61.8336 39.8766 61.8756 39.6138C62.7679 33.9505 61.8511 28.2558 59.2162 23.1497C58.198 21.1662 56.9383 19.3228 55.4791 17.6652C55.3007 17.4689 55.3217 17.1641 55.5211 16.9888C55.7206 16.8101 56.0215 16.8311 56.1965 17.0309C57.7081 18.7481 59.0133 20.658 60.07 22.7082C62.7959 27.9999 63.7477 33.898 62.8239 39.7645C62.7994 39.9222 62.6979 40.0484 62.5685 40.1149V40.1184Z" fill="#F36025"/>
<path d="M29.4318 62.4691C29.3338 62.5217 29.2184 62.5357 29.1029 62.5111C21.1772 60.6503 14.4938 55.4286 10.7637 48.1918C10.5957 47.8659 10.4313 47.5365 10.2773 47.207C10.1653 46.9687 10.2423 46.7024 10.5083 46.5692C10.7462 46.4571 11.0296 46.5587 11.1451 46.8005C11.2921 47.1194 11.446 47.4348 11.6105 47.7537C15.2111 54.7417 21.6636 59.7847 29.3163 61.5789C29.5753 61.642 29.7362 61.8979 29.6733 62.1572C29.6418 62.3009 29.5473 62.413 29.4283 62.4761L29.4318 62.4691Z" fill="#F36025"/>
<path d="M3.00327 38.4425C2.52738 38.509 2.34892 38.898 2.41541 39.3501L2.64635 40.9797C2.64985 41.0147 2.68484 41.0393 2.71984 41.0358L3.97954 40.857C4.01103 40.8535 4.03903 40.8185 4.03203 40.787L3.80108 39.1574C3.7381 38.7088 3.46166 38.3829 2.99977 38.446M9.45226 42.809L0.767293 44.0391C0.732301 44.0426 0.700809 44.0181 0.693811 43.983L0.042963 39.3361C-0.247469 37.272 0.970246 35.9648 2.61836 35.73C4.25598 35.4987 5.78862 36.4169 6.07905 38.481L6.35898 40.454C6.36598 40.4891 6.39398 40.5171 6.42897 40.5101L9.07785 40.1351C9.11284 40.1351 9.14783 40.1561 9.15133 40.1912L9.51174 42.7354C9.51524 42.7705 9.49075 42.802 9.45576 42.8055" fill="#F36025"/>
<path d="M4.52554 24.8537C4.06014 24.7276 3.74172 25.085 3.62275 25.5196L3.20984 27.044C3.20285 27.0756 3.22034 27.1141 3.25533 27.1246L4.48005 27.4576C4.51504 27.4681 4.55003 27.4435 4.56053 27.412L4.97343 25.8875C5.0924 25.4495 4.99792 24.9799 4.52204 24.8502M10.0472 26.7041L7.10793 27.1422L7.05194 27.1877L6.8245 28.0253C6.8175 28.0603 6.83499 28.0989 6.86999 28.1059L9.45238 28.8068C9.48737 28.8173 9.50487 28.8488 9.49787 28.8839L8.82603 31.3616C8.81553 31.3966 8.78054 31.4176 8.74555 31.4071L0.284529 29.1117C0.249537 29.1012 0.228542 29.0661 0.23904 29.0346L1.46725 24.5068C2.01312 22.4952 3.64724 21.7768 5.25686 22.2148C6.69853 22.6073 7.25839 23.6377 7.42636 24.4087C7.43335 24.4437 7.46835 24.4647 7.49984 24.4577L10.7961 23.7603C10.8416 23.7498 10.8835 23.7954 10.8695 23.8409L10.1067 26.6655L10.0507 26.7111" fill="#F36025"/>
<path d="M13.1978 13.2134C12.2216 12.4424 10.9304 12.4915 10.1256 13.5113C9.32424 14.5276 9.57968 15.7997 10.5525 16.5707C11.5252 17.3382 12.8234 17.2926 13.6212 16.2728C14.4225 15.253 14.1671 13.9809 13.1943 13.2134M8.85535 18.7225C6.70685 17.0263 6.55289 14.2017 8.25699 12.0394C9.95759 9.88063 12.7394 9.36898 14.8844 11.0651C17.0329 12.7613 17.1869 15.5859 15.4828 17.7482C13.7822 19.9105 11.0038 20.4186 8.85535 18.7225Z" fill="#F36025"/>
<path d="M21.1713 12.3274L17.4797 4.36172C17.4622 4.33018 17.4797 4.29163 17.5077 4.27411L19.8381 3.19122C19.8696 3.17721 19.9081 3.19122 19.9221 3.22277L22.6235 9.05774C22.6375 9.08928 22.6794 9.10329 22.7109 9.08577L25.6537 7.71552C25.6852 7.7015 25.7237 7.71552 25.7377 7.74706L26.672 9.76214C26.6895 9.79368 26.672 9.83223 26.6405 9.84625L21.2518 12.352L21.1678 12.3204" fill="#F36025"/>
<path d="M30.2305 9.18259L29.5342 0.428379C29.5342 0.393334 29.5587 0.361794 29.5937 0.35829L32.1516 0.155029C32.1866 0.155029 32.2181 0.179561 32.2215 0.214606L32.9144 8.96881C32.9144 9.00386 32.8899 9.0354 32.8549 9.0389L30.297 9.24216C30.262 9.24216 30.2305 9.21763 30.227 9.18259" fill="#F36025"/>
<path d="M37.0503 8.66204L38.7894 0.0515184C38.7964 0.0164736 38.8279 -0.00805784 38.8664 0.00245562L45.3539 1.31664C45.3889 1.32365 45.4099 1.35869 45.4029 1.39023L44.9655 3.57002C44.9585 3.60507 44.9235 3.6296 44.8885 3.61909L41.0359 2.84109C41.0009 2.83408 40.9659 2.85861 40.9624 2.89015L40.7245 4.05014C40.7175 4.08518 40.742 4.12023 40.7735 4.12724L44.1082 4.8001C44.1397 4.80711 44.1642 4.84215 44.1572 4.8772L43.8282 6.47875C43.8212 6.51379 43.7898 6.53482 43.7548 6.52781L40.4235 5.85495C40.3885 5.84794 40.3536 5.87247 40.3501 5.90752L39.6887 9.19823C39.6817 9.23327 39.6467 9.2578 39.6117 9.24729L37.0923 8.73914C37.0573 8.73213 37.0363 8.70059 37.0433 8.66555" fill="#F36025"/>
<path d="M46.4805 11.2227L50.9979 3.6951L51.0854 3.67407L56.7611 7.09095L56.7821 7.18206L55.6378 9.085L55.5503 9.10603L52.1841 7.08043L52.0967 7.10146L51.6138 7.90749C51.5928 7.93903 51.6033 7.97758 51.6348 7.99861L54.4621 9.69829L54.4831 9.7859L53.6958 11.0931L53.6083 11.1141L50.781 9.41092C50.7495 9.39339 50.7075 9.40391 50.6935 9.43194L49.9971 10.5989L50.0216 10.6866L53.3879 12.7156C53.4193 12.7332 53.4298 12.7717 53.4088 12.8033L52.2646 14.7062C52.2436 14.7377 52.2086 14.7447 52.1771 14.7272L46.5015 11.3103L46.4805 11.2227Z" fill="#F36025"/>
<path d="M36.7337 34.9062C36.7337 34.9062 37.2551 34.6223 38.9347 33.3887C40.6458 32.1376 49.1768 25.5983 49.0683 25.4511C48.9598 25.3039 40.1384 31.4648 38.4378 32.7054C36.7267 33.96 36.3278 34.349 36.3278 34.349C36.3278 34.349 36.1528 34.6959 36.0549 34.6153C35.9569 34.5312 36.2823 34.3139 36.2823 34.3139C36.2823 34.3069 36.5832 33.8303 37.4335 31.8993C38.2873 29.9719 42.4164 20.0226 42.2449 19.949C42.0769 19.8754 37.5175 29.6179 36.6602 31.5594C35.8064 33.4904 35.6524 34.0371 35.6524 34.0371C35.6524 34.0371 35.6769 34.4015 35.5545 34.3805C35.4285 34.3595 35.6 34.0336 35.6 34.0336C35.6 34.0336 35.6175 33.4658 35.3935 31.3631C35.1661 29.2675 33.7769 18.5823 33.5949 18.6033C33.4095 18.6243 34.3263 29.3446 34.5572 31.4543C34.7812 33.5569 34.9211 34.1036 34.9211 34.1036C34.9211 34.1036 35.1101 34.3875 35.0086 34.4226C34.9036 34.4576 34.8686 34.1247 34.8686 34.1247C34.8651 34.1247 34.6027 33.6235 33.357 31.9204C32.1148 30.2172 25.5783 21.6627 25.4278 21.7679C25.2774 21.8765 31.4254 30.7043 32.6746 32.418C33.9239 34.1247 34.3123 34.5312 34.3123 34.5312C34.3123 34.5312 34.6237 34.6609 34.5502 34.759C34.4802 34.8536 34.2808 34.5732 34.2808 34.5732C34.2808 34.5732 33.8014 34.2789 31.8663 33.4203C29.9313 32.5652 20.0076 28.4299 19.9341 28.6016C19.8606 28.7733 29.5989 33.3397 31.5269 34.1948C33.455 35.0464 33.9973 35.2041 34.0008 35.2041C34.0008 35.2041 34.3647 35.1375 34.3473 35.2741C34.3263 35.4073 33.9903 35.2601 33.9903 35.2601C33.9903 35.2601 33.4305 35.2426 31.3275 35.4704C29.221 35.6982 18.5659 37.0895 18.5869 37.2682C18.6044 37.4504 29.3224 36.5323 31.4184 36.308C33.5039 36.0872 34.0533 35.947 34.0638 35.9435C34.0638 35.9435 34.3822 35.7192 34.4277 35.8384C34.4732 35.954 34.0848 35.9961 34.0848 35.9961C34.0848 35.9961 33.5914 36.2589 31.8803 37.51C30.1832 38.7541 21.6382 45.3005 21.7467 45.4512C21.8552 45.6019 30.6696 39.4445 32.3772 38.1934C34.0568 36.9633 34.4732 36.5638 34.4872 36.5533C34.4872 36.5533 34.6692 36.2204 34.7637 36.2904C34.8581 36.357 34.5327 36.5883 34.5327 36.5883C34.5327 36.5883 34.2353 37.0684 33.385 39.0064C32.5242 40.9479 28.4021 50.8831 28.5736 50.9567C28.7416 51.0303 33.3045 41.2773 34.1548 39.3499C35.0016 37.4294 35.1591 36.8827 35.1626 36.8722C35.1626 36.8722 35.1591 36.5077 35.2605 36.5288C35.362 36.5463 35.2185 36.8792 35.2185 36.8792C35.2185 36.8792 35.2011 37.4434 35.4285 39.5496C35.6559 41.6558 37.0416 52.3235 37.2271 52.306C37.409 52.2884 36.4922 41.5507 36.2648 39.455C36.0409 37.3558 35.9044 36.8091 35.9009 36.8056C35.9009 36.8056 35.7259 36.5182 35.8204 36.4867C35.9149 36.4517 35.9534 36.7846 35.9534 36.7846C35.9534 36.7846 36.2228 37.2857 37.465 38.9924C38.7142 40.7061 45.2437 49.2535 45.3907 49.1414C45.5376 49.0328 39.3861 40.1979 38.1439 38.4913C36.9052 36.7951 36.5132 36.3886 36.5027 36.3781C36.5027 36.3781 36.2053 36.2344 36.2683 36.1468C36.3348 36.0592 36.5377 36.336 36.5377 36.336C36.5412 36.336 37.0206 36.6339 38.9487 37.4855C40.8732 38.3406 50.8074 42.4759 50.8809 42.3077C50.9544 42.1394 41.2266 37.5731 39.2881 36.7145C37.3565 35.8594 36.8142 35.7052 36.8142 35.7052C36.8142 35.7052 36.4608 35.7437 36.4713 35.6106C36.4783 35.4774 36.8212 35.6526 36.8212 35.6526C36.8282 35.6526 37.3915 35.6737 39.484 35.4424C41.5801 35.2146 52.2456 33.8233 52.2246 33.6411C52.2036 33.4588 41.5031 34.3735 39.3931 34.6013C37.2936 34.8291 36.7477 34.9693 36.7477 34.9693C36.7477 34.9693 36.4153 35.1515 36.3838 35.0709C36.3488 34.9903 36.7267 34.9167 36.7267 34.9167" fill="#F36025"/>
<path d="M37.2366 62.669L35.5115 62.6024L35.4345 64.642L37.3835 64.7156L37.3346 65.9948L33.9229 65.8616L34.2133 58.3059L37.492 58.4321L37.443 59.7112L35.6305 59.6411L35.564 61.3793L37.2891 61.4459L37.2436 62.669H37.2366Z" fill="#F36025"/>
<path d="M40.3067 58.0564L41.374 62.8506C41.6154 63.9335 42.0178 64.1893 42.3887 64.1052C42.8051 64.0106 43.0326 63.6496 42.7842 62.5352L41.7169 57.741L43.1481 57.4221L44.1593 61.9639C44.5827 63.8564 44.0998 65.0444 42.6792 65.3633C41.1395 65.7067 40.2997 64.7815 39.8868 62.9312L38.8721 58.3788L40.3032 58.0599L40.3067 58.0564Z" fill="#F36025"/>
<path d="M44.623 56.9538C44.9835 56.6559 45.4699 56.3265 45.9597 56.0601C46.6666 55.6747 47.3524 55.4293 47.9963 55.587C48.5981 55.7307 48.955 56.1092 49.2665 56.6804C49.6514 57.3883 49.6549 58.2189 49.1475 58.9023L49.158 58.9233C49.7074 58.8532 50.1623 59.1546 50.6766 59.7924C51.205 60.4618 51.8279 61.1837 52.0798 61.3659L50.7326 62.0984C50.5542 61.9547 50.0398 61.3659 49.5464 60.6896C48.9795 59.9256 48.6436 59.8029 48.2097 60.0377L48.0243 60.1394L49.4624 62.7888L48.1747 63.4897L44.623 56.9503V56.9538ZM47.4854 59.1476L47.7128 59.0249C48.2727 58.7201 48.3532 58.0892 48.0347 57.5075C47.7303 56.9468 47.2859 56.6664 46.6946 56.9608C46.5861 57.0204 46.4636 57.101 46.4111 57.1676L47.4854 59.1476Z" fill="#F36025"/>
<path d="M55.063 53.5654C57.0365 55.619 57.11 57.1505 56.0742 58.1457C54.839 59.3337 53.0999 58.4927 51.6618 56.9963C50.2341 55.5104 49.5868 53.6565 50.7905 52.5C52.1062 51.2314 53.8663 52.3213 55.063 53.5654ZM52.7745 55.9554C53.9607 57.1925 54.8005 57.5955 55.2309 57.1855C55.6753 56.758 55.0665 55.7872 54.0027 54.6798C53.0859 53.7266 52.1097 53.0011 51.6338 53.4602C51.2139 53.8632 51.6478 54.7849 52.7745 55.9554Z" fill="#F36025"/>
<path d="M53.3414 49.9961C53.4744 49.5931 53.7123 49.0815 53.9957 48.6014C54.4401 47.8479 54.895 47.3222 55.5389 47.133C56.1057 46.9472 56.7461 47.0909 57.2955 47.4168C57.9988 47.8339 58.3662 48.335 58.5307 48.8922C58.7161 49.5476 58.5202 50.3186 58.2123 50.8407C58.1598 50.9283 58.1108 51.016 58.0653 51.0931L60.4832 52.5264L59.7379 53.7915L53.3379 50.0032L53.3414 49.9961ZM57.0365 50.4763C57.089 50.4307 57.131 50.3606 57.1765 50.2835C57.5509 49.6457 57.271 49.0885 56.6621 48.731C56.0952 48.3946 55.5144 48.3631 55.1645 48.9518C55.0945 49.0675 55.049 49.1936 55.0315 49.2882L57.0365 50.4763Z" fill="#F36025"/>
<path d="M60.7529 43.2676L60.2665 44.9252L62.2225 45.4999L62.7719 43.6286L63.9966 43.9895L63.0308 47.2697L55.791 45.1355L56.7183 41.9814L57.943 42.3424L57.4321 44.0841L59.0977 44.5748L59.5841 42.9171L60.7564 43.2606L60.7529 43.2676Z" fill="#F36025"/>
</g>
<defs>
<clipPath id="clip0_16_3429">
<rect width="64" height="66" fill="white"/>
</clipPath>
</defs>
</svg>
