<?xml version="1.0" encoding="utf-8"?>
<!-- Generator: Adobe Illustrator 24.0.3, SVG Export Plug-In . SVG Version: 6.00 Build 0)  -->
<svg version="1.1" xmlns="http://www.w3.org/2000/svg" xmlns:xlink="http://www.w3.org/1999/xlink" x="0px" y="0px"
	 viewBox="0 0 403.3 55.15" style="enable-background:new 0 0 403.3 55.15;" xml:space="preserve">
<style type="text/css">
	.st0{fill:#00A99D;}
</style>
<g id="Ebene_2">
	<g>
		<g>
			<path class="st0" d="M222.41,8.97h-0.07l-4.52-6.63v10.04h-1.37V-0.04h1.42l4.52,6.77l4.52-6.77h1.42v12.41h-1.4V2.32
				L222.41,8.97z"/>
			<path class="st0" d="M234.44-0.04v12.41h-1.4V-0.04H234.44z"/>
			<path class="st0" d="M243.44,12.38h-4.31V-0.04h4.31c3.9,0,6.6,2.68,6.6,6.19C250.04,9.66,247.34,12.38,243.44,12.38z
				 M243.44,1.26h-2.91v9.82h2.91c3.14,0,5.14-2.13,5.14-4.89C248.59,3.42,246.58,1.26,243.44,1.26z"/>
			<path class="st0" d="M259.12,12.59c-3.78,0-6.31-2.96-6.31-6.4s2.57-6.44,6.35-6.44c3.78,0,6.31,2.96,6.31,6.4
				C265.47,9.59,262.9,12.59,259.12,12.59z M259.12,1.05c-2.84,0-4.86,2.27-4.86,5.11s2.06,5.14,4.89,5.14s4.86-2.27,4.86-5.11
				S261.96,1.05,259.12,1.05z"/>
			<path class="st0" d="M277.4-0.04h1.51l-5.34,12.5h-1.24l-5.34-12.5h1.56l4.42,10.69L277.4-0.04z"/>
			<path class="st0" d="M291.5,12.38h-1.51l-1.45-3.28h-6.76l-1.47,3.28h-1.44l5.66-12.5h1.31L291.5,12.38z M285.17,1.51l-2.84,6.33
				h5.66L285.17,1.51z"/>
			<path class="st0" d="M225.37,22.54h-7.52v4.43h6.72v1.28h-6.72v5.41h-1.4V21.24h8.92V22.54z"/>
			<path class="st0" d="M228.3,26.24l-0.41-1.12c1.01-0.46,2-0.76,3.33-0.76c2.5,0,3.9,1.28,3.9,3.69v5.6h-1.31v-1.38
				c-0.64,0.83-1.7,1.58-3.32,1.58c-1.7,0-3.42-0.96-3.42-2.87c0-1.95,1.6-2.98,3.92-2.98c1.17,0,2,0.16,2.82,0.39v-0.32
				c0-1.65-1.01-2.5-2.73-2.5C230,25.57,229.15,25.85,228.3,26.24z M228.46,30.92c0,1.17,1.06,1.84,2.31,1.84
				c1.68,0,3.07-1.03,3.07-2.48V29.4c-0.67-0.2-1.58-0.39-2.7-0.39C229.42,29.01,228.46,29.75,228.46,30.92z"/>
			<path class="st0" d="M242.52,33.87c-2.68,0-4.7-2.18-4.7-4.77c0-2.61,2.02-4.8,4.7-4.8c1.74,0,2.82,0.73,3.67,1.63l-0.9,0.96
				c-0.73-0.76-1.54-1.38-2.78-1.38c-1.86,0-3.28,1.58-3.28,3.56c0,2,1.45,3.58,3.37,3.58c1.17,0,2.07-0.58,2.8-1.37l0.87,0.82
				C245.34,33.12,244.24,33.87,242.52,33.87z"/>
			<path class="st0" d="M248.91,22.48v-1.51h1.56v1.51H248.91z M249,33.65v-9.17h1.37v9.17H249z"/>
			<path class="st0" d="M254.01,33.65V20.71h1.37v12.94H254.01z"/>
			<path class="st0" d="M258.94,22.48v-1.51h1.56v1.51H258.94z M259.03,33.65v-9.17h1.37v9.17H259.03z"/>
			<path class="st0" d="M265.77,31.05c0,1.12,0.62,1.53,1.54,1.53c0.46,0,0.85-0.09,1.33-0.32v1.17c-0.48,0.25-0.99,0.39-1.65,0.39
				c-1.47,0-2.59-0.73-2.59-2.59v-5.53h-1.28v-1.21h1.28v-2.77h1.37v2.77h2.91v1.21h-2.91V31.05z"/>
			<path class="st0" d="M275.91,33.96c-0.78,1.9-1.67,2.59-3.05,2.59c-0.76,0-1.33-0.16-1.95-0.46l0.46-1.08
				c0.44,0.23,0.85,0.34,1.44,0.34c0.82,0,1.33-0.43,1.88-1.72l-4.17-9.13h1.51l3.33,7.64l2.94-7.64h1.45L275.91,33.96z"/>
			<path class="st0" d="M294.14,30.25h-0.07l-4.52-6.63v10.04h-1.37V21.24h1.42l4.52,6.77l4.52-6.77h1.42v12.41h-1.4V23.6
				L294.14,30.25z"/>
			<path class="st0" d="M304.23,26.24l-0.41-1.12c1.01-0.46,2-0.76,3.33-0.76c2.5,0,3.9,1.28,3.9,3.69v5.6h-1.31v-1.38
				c-0.64,0.83-1.7,1.58-3.32,1.58c-1.7,0-3.42-0.96-3.42-2.87c0-1.95,1.6-2.98,3.92-2.98c1.17,0,2,0.16,2.82,0.39v-0.32
				c0-1.65-1.01-2.5-2.73-2.5C305.93,25.57,305.08,25.85,304.23,26.24z M304.39,30.92c0,1.17,1.06,1.84,2.3,1.84
				c1.68,0,3.07-1.03,3.07-2.48V29.4c-0.67-0.2-1.58-0.39-2.69-0.39C305.35,29.01,304.39,29.75,304.39,30.92z"/>
			<path class="st0" d="M315.69,33.65h-1.37v-9.17h1.37v1.6c0.6-0.99,1.56-1.79,3.14-1.79c2.22,0,3.51,1.49,3.51,3.67v5.69h-1.37
				V28.3c0-1.7-0.92-2.77-2.54-2.77c-1.58,0-2.75,1.15-2.75,2.87V33.65z"/>
			<path class="st0" d="M326.13,26.24l-0.41-1.12c1.01-0.46,2-0.76,3.33-0.76c2.5,0,3.9,1.28,3.9,3.69v5.6h-1.31v-1.38
				c-0.64,0.83-1.7,1.58-3.32,1.58c-1.7,0-3.42-0.96-3.42-2.87c0-1.95,1.6-2.98,3.92-2.98c1.17,0,2,0.16,2.82,0.39v-0.32
				c0-1.65-1.01-2.5-2.73-2.5C327.83,25.57,326.98,25.85,326.13,26.24z M326.29,30.92c0,1.17,1.06,1.84,2.3,1.84
				c1.68,0,3.07-1.03,3.07-2.48V29.4c-0.67-0.2-1.58-0.39-2.69-0.39C327.25,29.01,326.29,29.75,326.29,30.92z"/>
			<path class="st0" d="M340.28,36.53c-1.52,0-2.94-0.43-4.17-1.28l0.62-1.06c1.05,0.76,2.22,1.17,3.53,1.17
				c2.02,0,3.33-1.12,3.33-3.26v-1.08c-0.8,1.06-1.92,1.93-3.6,1.93c-2.2,0-4.31-1.63-4.31-4.31c0-2.7,2.13-4.34,4.31-4.34
				c1.72,0,2.84,0.85,3.58,1.84v-1.65h1.37v7.57C344.94,35.02,343.1,36.53,340.28,36.53z M340.26,25.5c-1.74,0-3.17,1.19-3.17,3.1
				c0,1.88,1.47,3.14,3.17,3.14c1.74,0,3.37-1.24,3.37-3.12C343.63,26.72,342,25.5,340.26,25.5z"/>
			<path class="st0" d="M352.39,32.68c1.26,0,2.15-0.51,2.89-1.29l0.85,0.76c-0.92,1.03-2.04,1.72-3.78,1.72
				c-2.52,0-4.58-1.93-4.58-4.79c0-2.66,1.86-4.79,4.4-4.79c2.71,0,4.27,2.16,4.27,4.86c0,0.12,0,0.27-0.02,0.43h-7.27
				C349.36,31.56,350.78,32.68,352.39,32.68z M355.07,28.57c-0.14-1.67-1.1-3.12-2.93-3.12c-1.6,0-2.8,1.33-2.98,3.12H355.07z"/>
			<path class="st0" d="M369.7,24.29c2.11,0,3.4,1.42,3.4,3.69v5.67h-1.37V28.3c0-1.77-0.89-2.77-2.38-2.77
				c-1.38,0-2.54,1.03-2.54,2.84v5.28h-1.35v-5.39c0-1.72-0.9-2.73-2.36-2.73s-2.55,1.21-2.55,2.89v5.23h-1.37v-9.17h1.37v1.54
				c0.6-0.9,1.42-1.74,2.96-1.74c1.49,0,2.45,0.8,2.94,1.83C367.13,25.11,368.1,24.29,369.7,24.29z"/>
			<path class="st0" d="M380.46,32.68c1.26,0,2.14-0.51,2.89-1.29l0.85,0.76c-0.92,1.03-2.04,1.72-3.78,1.72
				c-2.52,0-4.57-1.93-4.57-4.79c0-2.66,1.86-4.79,4.4-4.79c2.71,0,4.27,2.16,4.27,4.86c0,0.12,0,0.27-0.02,0.43h-7.27
				C377.43,31.56,378.85,32.68,380.46,32.68z M383.14,28.57c-0.14-1.67-1.1-3.12-2.92-3.12c-1.6,0-2.8,1.33-2.98,3.12H383.14z"/>
			<path class="st0" d="M388.64,33.65h-1.37v-9.17h1.37v1.6c0.6-0.99,1.56-1.79,3.14-1.79c2.22,0,3.51,1.49,3.51,3.67v5.69h-1.37
				V28.3c0-1.7-0.92-2.77-2.54-2.77c-1.58,0-2.75,1.15-2.75,2.87V33.65z"/>
			<path class="st0" d="M400.39,31.05c0,1.12,0.62,1.53,1.54,1.53c0.46,0,0.85-0.09,1.33-0.32v1.17c-0.48,0.25-0.99,0.39-1.65,0.39
				c-1.47,0-2.59-0.73-2.59-2.59v-5.53h-1.28v-1.21h1.28v-2.77h1.37v2.77h2.91v1.21h-2.91V31.05z"/>
			<path class="st0" d="M222.22,55.15c-3.9,0-6.31-2.84-6.31-6.4c0-3.42,2.5-6.44,6.22-6.44c2.09,0,3.39,0.6,4.63,1.65l-0.9,1.06
				c-0.96-0.83-2.02-1.42-3.78-1.42c-2.75,0-4.72,2.32-4.72,5.11c0,2.98,1.9,5.18,4.91,5.18c1.42,0,2.73-0.55,3.58-1.24v-3.08h-3.78
				V48.3h5.12v4.95C226.05,54.28,224.31,55.15,222.22,55.15z"/>
			<path class="st0" d="M240.98,45.57c2.11,0,3.4,1.42,3.4,3.69v5.67h-1.37v-5.35c0-1.77-0.89-2.77-2.38-2.77
				c-1.38,0-2.54,1.03-2.54,2.84v5.28h-1.35v-5.39c0-1.72-0.9-2.73-2.36-2.73s-2.55,1.21-2.55,2.89v5.23h-1.37v-9.17h1.37v1.54
				c0.6-0.9,1.42-1.74,2.96-1.74c1.49,0,2.45,0.8,2.94,1.83C238.41,46.39,239.38,45.57,240.98,45.57z"/>
			<path class="st0" d="M252.58,55.13c-1.7,0-2.8-0.92-3.51-1.95v1.76h-1.37V41.99h1.37v5.62c0.75-1.1,1.83-2.04,3.51-2.04
				c2.2,0,4.38,1.74,4.38,4.77C256.96,53.36,254.79,55.13,252.58,55.13z M252.33,46.79c-1.7,0-3.32,1.42-3.32,3.55
				c0,2.15,1.61,3.56,3.32,3.56c1.77,0,3.23-1.31,3.23-3.55C255.55,48.18,254.06,46.79,252.33,46.79z"/>
			<path class="st0" d="M261.46,49.35v5.59h-1.4V42.52h1.4v5.51h7.16v-5.51h1.4v12.41h-1.4v-5.59H261.46z"/>
		</g>
		<g>
			<path class="st0" d="M69.9,54.92V23.6L48.7,54.92H37.76V23.53L16.33,54.92H0L37.76,0h12.96v28.99L70.2,0h13.34v54.92H69.9z"/>
			<path class="st0" d="M92.41,0h55.63l-8.55,12.44h-32.76v8.69h26.79l-8.66,12.59h-18.13v21.2H92.41V0z"/>
			<path class="st0" d="M190.07,54.92V23.6l-21.2,31.32h-10.94V23.53L136.5,54.92h-16.33L157.93,0h12.96v28.99L190.37,0h13.34v54.92
				H190.07z"/>
		</g>
	</g>
</g>
<g id="Ebene_1">
</g>
</svg>
