<?xml version="1.0" encoding="UTF-8"?> <svg xmlns="http://www.w3.org/2000/svg" width="238" height="31" viewBox="0 0 238 31" fill="none"><g clip-path="url(#clip0_81_3805)"><mask id="mask0_81_3805" style="mask-type:luminance" maskUnits="userSpaceOnUse" x="0" y="0" width="238" height="31"><path d="M237.992 0H0V30.533H237.992V0Z" fill="white"></path></mask><g mask="url(#mask0_81_3805)"><path d="M8.74104 15.4338C8.74104 14.2317 8.66557 14.07 8.07259 13.9056C7.954 13.8759 7.70063 13.8597 7.56856 13.8597C7.50926 13.8597 7.44997 13.8301 7.44997 13.7708C7.44997 13.6818 7.52274 13.6522 7.68716 13.6522C8.35561 13.6522 9.29089 13.6953 9.36367 13.6953C9.43644 13.6953 10.3717 13.6522 10.8165 13.6522C10.9809 13.6522 11.0537 13.6818 11.0537 13.7708C11.0537 13.8301 10.9944 13.8597 10.9351 13.8597C10.8326 13.8597 10.7437 13.8759 10.5631 13.9056C10.1615 13.981 10.0429 14.2317 10.0133 14.7519C9.9836 15.2263 9.9836 15.671 9.9836 16.2963V17.9594C9.9836 18.6278 9.96743 18.6575 9.78954 18.7599C8.84077 19.2639 7.50387 19.4283 6.64405 19.4283C5.5174 19.4283 3.40963 19.2801 1.76276 17.8408C0.859819 17.051 0 15.4635 0 13.6091C0 11.2345 1.15631 9.55794 2.47703 8.72777C3.81123 7.8976 5.2829 7.79248 6.42303 7.79248C7.35832 7.79248 8.41221 7.98655 8.69252 8.04584C9.00519 8.12131 9.52269 8.18061 9.89465 8.19409C10.0429 8.21026 10.0725 8.26956 10.0725 8.32886C10.0725 8.5364 9.96743 8.95148 9.96743 10.4366C9.96743 10.6738 9.93778 10.7493 9.83266 10.7493C9.75989 10.7493 9.74371 10.6603 9.73024 10.5283C9.71676 10.3207 9.64129 9.90564 9.41758 9.54716C9.04562 8.98383 7.84349 8.34503 5.92978 8.34503C4.9945 8.34503 3.88131 8.43398 2.75465 9.32344C1.89484 10.0054 1.28569 11.3557 1.28569 13.0916C1.28569 15.1831 2.33957 16.6979 2.85977 17.202C4.03225 18.3448 5.38263 18.7895 6.74648 18.7895C7.28016 18.7895 8.05373 18.7006 8.43916 18.4769C8.63323 18.3718 8.73565 18.21 8.73565 17.9567V15.4338H8.74104Z" fill="white"></path><path d="M13.8893 12.3016C13.8893 9.98624 13.8893 9.57116 13.8597 9.09678C13.83 8.59274 13.7114 8.35555 13.2209 8.25043C13.1023 8.22079 12.8489 8.20461 12.7169 8.20461C12.6576 8.20461 12.5983 8.17496 12.5983 8.11567C12.5983 8.02672 12.671 7.99707 12.8354 7.99707C13.5039 7.99707 14.4392 8.04289 14.512 8.04289C14.6764 8.04289 15.803 7.99707 16.2639 7.99707C17.1992 7.99707 18.1938 8.08602 18.9782 8.64935C19.3501 8.91619 20.0024 9.64393 20.0024 10.6682C20.0024 11.7652 19.5415 12.8649 18.2073 14.0967C19.4229 15.6573 20.4337 16.978 21.2935 17.8971C22.094 18.7435 22.7328 18.9052 23.1048 18.9645C23.3878 19.0076 23.5953 19.0076 23.6843 19.0076C23.7597 19.0076 23.819 19.0534 23.819 19.0965C23.819 19.1855 23.7301 19.2151 23.4632 19.2151H22.4094C21.5792 19.2151 21.2072 19.1397 20.8218 18.9321C20.183 18.5898 19.6655 17.8648 18.8191 16.7516C18.1965 15.9349 17.4984 14.9403 17.2019 14.5549C17.1426 14.4956 17.0995 14.4659 17.0079 14.4659L15.1831 14.4363C15.1076 14.4363 15.0807 14.4821 15.0807 14.5549V14.9107C15.0807 16.3338 15.0807 17.5063 15.1535 18.1316C15.1993 18.5629 15.2882 18.889 15.733 18.9483C15.9405 18.978 16.2666 19.0076 16.4014 19.0076C16.4903 19.0076 16.52 19.0534 16.52 19.0965C16.52 19.1693 16.4445 19.2151 16.2828 19.2151C15.4661 19.2151 14.5308 19.1693 14.4581 19.1693C14.4446 19.1693 13.5093 19.2151 13.0646 19.2151C12.9001 19.2151 12.8274 19.1855 12.8274 19.0965C12.8274 19.0507 12.857 19.0076 12.946 19.0076C13.078 19.0076 13.2586 18.978 13.3907 18.9483C13.6872 18.889 13.7626 18.5629 13.8193 18.1316C13.8947 17.509 13.8947 16.3365 13.8947 14.9107V12.3016H13.8893ZM15.0753 13.5926C15.0753 13.6681 15.1049 13.7274 15.1777 13.7705C15.4014 13.9053 16.0834 14.0077 16.7356 14.0077C17.0914 14.0077 17.5065 13.9646 17.8488 13.7247C18.369 13.3689 18.7544 12.5684 18.7544 11.439C18.7544 9.58463 17.776 8.47145 16.1885 8.47145C15.7437 8.47145 15.3421 8.51727 15.1939 8.5604C15.1211 8.59005 15.0753 8.64935 15.0753 8.73829V13.5926Z" fill="white"></path><path d="M24.2158 12.3016C24.2158 9.98624 24.2158 9.57116 24.1861 9.09678C24.1565 8.59274 24.0379 8.35555 23.5473 8.25043C23.4287 8.22079 23.1754 8.20461 23.0433 8.20461C22.984 8.20461 22.9247 8.17496 22.9247 8.11567C22.9247 8.02672 22.9975 7.99707 23.1619 7.99707C23.8303 7.99707 24.736 8.04289 24.8681 8.04289C25.0028 8.04289 25.8923 7.99707 26.337 7.99707C26.5014 7.99707 26.5742 8.02672 26.5742 8.11567C26.5742 8.17496 26.5149 8.20461 26.4556 8.20461C26.3505 8.20461 26.2643 8.22079 26.0837 8.25043C25.6821 8.30973 25.5635 8.57657 25.5338 9.09678C25.5042 9.57116 25.5042 9.98624 25.5042 12.3016V14.3797C25.5042 16.5171 25.9785 17.4362 26.6173 18.0454C27.3451 18.7273 28.0135 18.8621 28.8572 18.8621C29.7628 18.8621 30.6523 18.4308 31.186 17.7947C31.8679 16.9483 32.0458 15.6869 32.0458 14.1587V12.3043C32.0458 9.98894 32.0458 9.57385 32.0161 9.09947C31.9865 8.59544 31.8679 8.35825 31.3773 8.25313C31.2588 8.22348 31.0054 8.20731 30.8733 8.20731C30.814 8.20731 30.7547 8.17766 30.7547 8.11836C30.7547 8.02941 30.8302 7.99977 30.9919 7.99977C31.6604 7.99977 32.4771 8.04559 32.566 8.04559C32.6711 8.04559 33.3665 7.99977 33.8113 7.99977C33.9757 7.99977 34.0484 8.02941 34.0484 8.11836C34.0484 8.17766 33.9891 8.20731 33.9298 8.20731C33.8247 8.20731 33.7358 8.22348 33.5579 8.25313C33.1563 8.34208 33.0377 8.57927 33.008 9.09947C32.9784 9.57385 32.9784 9.98894 32.9784 12.3043V13.8918C32.9784 15.4956 32.8005 17.2745 31.6145 18.3284C30.5472 19.2771 29.434 19.4254 28.558 19.4254C28.054 19.4254 26.5554 19.3661 25.5015 18.3715C24.7737 17.6734 24.2104 16.6357 24.2104 14.4686V12.3016H24.2158Z" fill="white"></path><path d="M37.0959 12.3016C37.0959 9.98624 37.0959 9.57116 37.0663 9.09678C37.0366 8.59274 36.918 8.35555 36.4275 8.25043C36.3089 8.22079 36.0555 8.20461 35.9234 8.20461C35.8641 8.20461 35.8048 8.17496 35.8048 8.11567C35.8048 8.02672 35.8776 7.99707 36.042 7.99707C36.7105 7.99707 37.5999 8.04289 37.7185 8.04289C38.0447 8.04289 38.9045 7.99707 39.5891 7.99707C41.4435 7.99707 42.112 8.6197 42.3492 8.84341C42.6753 9.15607 43.0904 9.82183 43.0904 10.6089C43.0904 12.7166 41.546 14.1398 39.4409 14.1398C39.3681 14.1398 39.2037 14.1398 39.1282 14.1263C39.0527 14.1263 38.9638 14.0967 38.9638 14.0212C38.9638 13.9026 39.0527 13.8864 39.3654 13.8864C40.8047 13.8864 41.9314 12.8325 41.9314 11.4687C41.9314 10.9781 41.8856 9.98355 41.1012 9.18303C40.3142 8.38251 39.4085 8.4418 39.0689 8.4418C38.8182 8.4418 38.5649 8.47145 38.4301 8.53075C38.3412 8.5604 38.3115 8.66552 38.3115 8.81376V14.9134C38.3115 16.3392 38.3115 17.509 38.3843 18.1343C38.4301 18.5656 38.5191 18.8917 38.9638 18.951C39.1713 18.9806 39.4975 19.0103 39.6322 19.0103C39.7212 19.0103 39.7508 19.0561 39.7508 19.0992C39.7508 19.1747 39.6781 19.2178 39.5137 19.2178C38.697 19.2178 37.7617 19.1747 37.6889 19.1747C37.6431 19.1747 36.7105 19.2178 36.263 19.2178C36.0986 19.2178 36.0259 19.1882 36.0259 19.0992C36.0259 19.0534 36.0555 19.0103 36.1445 19.0103C36.2765 19.0103 36.4571 18.9806 36.5892 18.951C36.8857 18.8917 36.9612 18.5656 37.0204 18.1343C37.0959 17.5117 37.0959 16.3392 37.0959 14.9134V12.3016Z" fill="white"></path><path d="M50.4782 7.79248C53.8177 7.79248 56.3109 9.90025 56.3109 13.3584C56.3109 16.6818 53.9659 19.4283 50.3892 19.4283C46.3246 19.4283 44.6319 16.2667 44.6319 13.5956C44.6319 11.1886 46.3839 7.79248 50.4782 7.79248ZM50.7908 18.8623C52.125 18.8623 54.8851 18.0914 54.8851 13.7735C54.8851 10.2129 52.718 8.29651 50.373 8.29651C47.896 8.29651 46.0389 9.9299 46.0389 13.1778C46.0416 16.6359 48.1197 18.8623 50.7908 18.8623Z" fill="white"></path><path d="M63.1499 27.0964C60.061 24.3256 59.2982 20.6949 59.2982 17.6707C59.2982 15.5387 60.0314 11.8137 62.8642 8.97822C64.7752 7.06721 67.6727 5.57129 72.5756 5.57129C73.8478 5.57129 75.6321 5.66832 77.1927 5.95403C78.4029 6.17774 79.4218 6.36911 80.4406 6.43111C80.791 6.46345 80.8557 6.59013 80.8557 6.7815C80.8557 7.03487 80.7614 7.41761 80.6967 8.56314C80.632 9.61432 80.632 11.3663 80.6023 11.8434C80.57 12.3205 80.508 12.5118 80.3166 12.5118C80.0929 12.5118 80.0606 12.2881 80.0606 11.8434C80.0606 10.6008 79.5511 9.29627 78.7237 8.59548C77.6078 7.64132 75.1577 6.7815 72.3572 6.7815C68.1228 6.7815 66.1471 8.02406 65.034 9.1049C62.7106 11.334 62.1688 14.1668 62.1688 17.4147C62.1688 23.4954 66.8479 29.0667 73.6618 29.0667C76.0499 29.0667 77.9285 28.781 79.2007 27.4738C79.8692 26.773 80.2843 25.3714 80.3786 24.8C80.4433 24.4496 80.5053 24.3229 80.6967 24.3229C80.8557 24.3229 80.9204 24.5466 80.9204 24.8C80.9204 25.0237 80.5376 27.7918 80.2196 28.8753C80.0282 29.4791 79.9662 29.5438 79.3921 29.7999C78.1199 30.3093 75.6995 30.533 73.6618 30.533C68.8829 30.533 65.6647 29.3551 63.1499 27.0964Z" fill="white"></path><path d="M93.1433 6.81385C93.5261 5.76266 93.6527 5.57129 93.8441 5.57129C94.0355 5.57129 94.1622 5.73032 94.5449 6.71682C95.022 7.92703 100.022 21.0777 101.963 25.9158C103.108 28.7487 104.033 29.2581 104.701 29.4495C105.178 29.6085 105.655 29.6408 105.973 29.6408C106.165 29.6408 106.291 29.6732 106.291 29.8322C106.291 30.0236 106.006 30.0883 105.655 30.0883C105.178 30.0883 102.852 30.0883 100.655 30.0236C100.052 29.9912 99.7011 29.9912 99.7011 29.7999C99.7011 29.6732 99.7955 29.6085 99.9248 29.5761C100.116 29.5114 100.308 29.2257 100.116 28.7163L97.154 20.8836C97.0893 20.7569 97.0273 20.6922 96.8683 20.6922H90.0221C89.8631 20.6922 89.766 20.7866 89.704 20.9483L87.793 26.5843C87.5073 27.3794 87.3483 28.1449 87.3483 28.7163C87.3483 29.3524 88.0167 29.6408 88.5585 29.6408H88.8766C89.1003 29.6408 89.1946 29.7055 89.1946 29.8322C89.1946 30.0236 89.0032 30.0883 88.7175 30.0883C87.9547 30.0883 86.5855 29.9939 86.2351 29.9939C85.8847 29.9939 84.1327 30.0883 82.6368 30.0883C82.2217 30.0883 82.0331 30.0236 82.0331 29.8322C82.0331 29.7055 82.1597 29.6408 82.3188 29.6408C82.5425 29.6408 82.9872 29.6085 83.2433 29.5761C84.7068 29.3848 85.3456 28.1746 85.9171 26.5843L93.1433 6.81385ZM96.4532 19.5494C96.6122 19.5494 96.6122 19.4551 96.5799 19.3257L93.5557 10.7302C93.3967 10.2531 93.2376 10.2531 93.0786 10.7302L90.2781 19.3257C90.2135 19.4847 90.2781 19.5494 90.3725 19.5494H96.4532Z" fill="white"></path><path d="M111.707 25.7569C111.771 28.3687 112.09 29.1962 112.949 29.4496C113.553 29.6086 114.254 29.6409 114.542 29.6409C114.701 29.6409 114.796 29.7056 114.796 29.8323C114.796 30.0237 114.604 30.0884 114.222 30.0884C112.408 30.0884 111.133 29.994 110.847 29.994C110.561 29.994 109.224 30.0884 107.79 30.0884C107.472 30.0884 107.281 30.056 107.281 29.8323C107.281 29.7056 107.375 29.6409 107.537 29.6409C107.793 29.6409 108.365 29.6086 108.842 29.4496C109.637 29.2259 109.796 28.3041 109.796 25.4065L109.828 7.16167C109.828 5.91911 109.922 5.56872 110.178 5.56872C110.435 5.56872 110.974 6.26951 111.292 6.58756C111.769 7.12933 116.513 12.2559 121.418 17.5091C124.569 20.8837 128.041 24.7677 129.059 25.8189L128.709 9.6441C128.677 7.57406 128.453 6.87327 127.467 6.61991C126.892 6.49322 126.162 6.46088 125.906 6.46088C125.682 6.46088 125.653 6.36654 125.653 6.23716C125.653 6.04579 125.906 6.01345 126.289 6.01345C127.723 6.01345 129.251 6.10779 129.601 6.10779C129.952 6.10779 131.003 6.01345 132.307 6.01345C132.658 6.01345 132.881 6.04579 132.881 6.23716C132.881 6.36385 132.755 6.46088 132.531 6.46088C132.372 6.46088 132.148 6.46088 131.766 6.55522C130.714 6.77893 130.588 7.47703 130.588 9.38804L130.523 28.0453C130.523 30.1477 130.458 30.3067 130.237 30.3067C129.981 30.3067 129.601 29.9563 127.914 28.269C127.564 27.951 122.979 23.2718 119.604 19.6412C115.912 15.6628 112.313 11.6494 111.294 10.5039L111.707 25.7569ZM120.302 2.73859C119.728 2.48523 119.124 2.00545 118.138 2.00545C117.022 2.00545 116.418 2.89762 116.195 3.15098C116.036 3.34235 115.876 3.43669 115.75 3.43669C115.623 3.43669 115.558 3.33966 115.558 3.24532C115.558 3.08629 115.653 2.95961 115.782 2.76824C116.227 2.06745 117.502 0.506836 118.521 0.506836C119.283 0.506836 120.208 1.01626 121.194 1.49334C121.639 1.71705 122.531 2.0351 123.041 2.0351C124.219 2.0351 124.887 1.23997 124.984 1.11329C125.111 0.921921 125.27 0.762895 125.367 0.762895C125.494 0.762895 125.591 0.857232 125.591 0.954265C125.591 1.08095 125.558 1.17798 125.464 1.36935C125.208 1.87877 123.809 3.56607 122.822 3.56607C121.769 3.56607 120.75 2.96231 120.302 2.73859Z" fill="white"></path><path d="M144.31 6.81385C144.693 5.76266 144.819 5.57129 145.011 5.57129C145.202 5.57129 145.329 5.73032 145.711 6.71682C146.188 7.92703 151.188 21.0777 153.129 25.9158C154.274 28.7487 155.199 29.2581 155.867 29.4495C156.345 29.6085 156.822 29.6408 157.14 29.6408C157.331 29.6408 157.458 29.6732 157.458 29.8322C157.458 30.0236 157.172 30.0883 156.822 30.0883C156.345 30.0883 154.018 30.0883 151.822 30.0236C151.218 29.9912 150.868 29.9912 150.868 29.7999C150.868 29.6732 150.962 29.6085 151.091 29.5761C151.283 29.5114 151.474 29.2257 151.283 28.7163L148.32 20.8836C148.256 20.7569 148.194 20.6922 148.035 20.6922H141.189C141.03 20.6922 140.932 20.7866 140.87 20.9483L138.959 26.5843C138.674 27.3794 138.515 28.1449 138.515 28.7163C138.515 29.3524 139.183 29.6408 139.725 29.6408H140.043C140.267 29.6408 140.361 29.7055 140.361 29.8322C140.361 30.0236 140.17 30.0883 139.884 30.0883C139.118 30.0883 137.752 29.9939 137.402 29.9939C137.051 29.9939 135.299 30.0883 133.803 30.0883C133.388 30.0883 133.199 30.0236 133.199 29.8322C133.199 29.7055 133.326 29.6408 133.485 29.6408C133.709 29.6408 134.154 29.6085 134.41 29.5761C135.873 29.3848 136.512 28.1746 137.084 26.5843L144.31 6.81385ZM147.622 19.5494C147.781 19.5494 147.781 19.4551 147.749 19.3257L144.725 10.7302C144.566 10.2531 144.407 10.2531 144.248 10.7302L141.445 19.3257C141.38 19.4847 141.445 19.5494 141.539 19.5494H147.622Z" fill="white"></path><path d="M162.013 15.2502C162.013 10.2826 162.013 9.39045 161.948 8.3716C161.884 7.29077 161.63 6.77865 160.579 6.55763C160.323 6.49294 159.784 6.46329 159.496 6.46329C159.369 6.46329 159.24 6.3986 159.24 6.27192C159.24 6.08055 159.399 6.01586 159.749 6.01586C161.183 6.01586 163.188 6.1102 163.347 6.1102C163.73 6.1102 165.735 6.01586 167.646 6.01586C170.8 6.01586 176.625 5.73016 180.414 9.64651C182.007 11.3015 183.503 13.9456 183.503 17.7326C183.503 21.7433 181.848 24.8321 180.064 26.7108C178.695 28.1447 175.83 30.3711 170.417 30.3711C169.048 30.3711 167.361 30.2768 165.992 30.1797C164.59 30.0854 163.509 29.9884 163.35 29.9884C163.285 29.9884 162.746 29.9884 162.078 30.0207C161.442 30.0207 160.709 30.0854 160.232 30.0854C159.881 30.0854 159.722 30.0207 159.722 29.8293C159.722 29.735 159.787 29.638 159.978 29.638C160.264 29.638 160.647 29.5733 160.932 29.5113C161.568 29.3846 161.727 28.6838 161.854 27.7593C162.013 26.4224 162.013 23.9076 162.013 20.8511V15.2502ZM164.69 18.6894C164.69 22.064 164.722 24.9939 164.754 25.5976C164.787 26.3928 164.849 27.6677 165.105 28.0181C165.517 28.6218 166.76 29.2903 170.517 29.2903C173.479 29.2903 176.218 28.2067 178.094 26.3281C179.749 24.7055 180.641 21.6489 180.641 18.7191C180.641 14.676 178.889 12.0642 177.584 10.695C174.592 7.54413 170.962 7.0967 167.172 7.0967C166.536 7.0967 165.355 7.19104 165.102 7.32042C164.816 7.4471 164.719 7.60612 164.719 7.95652C164.687 9.04005 164.687 12.288 164.687 14.738V18.6894H164.69Z" fill="white"></path><path d="M191.656 20.854C191.656 23.9105 191.656 26.4253 191.815 27.7622C191.909 28.6867 192.101 29.3848 193.058 29.5142C193.502 29.5788 194.203 29.6408 194.492 29.6408C194.683 29.6408 194.748 29.7352 194.748 29.8322C194.748 29.9912 194.589 30.0883 194.238 30.0883C192.486 30.0883 190.481 29.9939 190.322 29.9939C190.163 29.9939 188.158 30.0883 187.201 30.0883C186.85 30.0883 186.691 30.0236 186.691 29.8322C186.691 29.7379 186.756 29.6408 186.947 29.6408C187.233 29.6408 187.616 29.5761 187.901 29.5142C188.538 29.3875 188.697 28.6867 188.826 27.7622C188.985 26.4253 188.985 23.9105 188.985 20.854V15.2503C188.985 10.2828 188.985 9.39062 188.92 8.37178C188.856 7.28824 188.538 6.74917 187.837 6.59015C187.486 6.49581 187.074 6.46347 186.85 6.46347C186.724 6.46347 186.594 6.39878 186.594 6.27209C186.594 6.08072 186.753 6.01604 187.104 6.01604C188.155 6.01604 190.16 6.11037 190.319 6.11037C190.478 6.11037 192.484 6.01604 193.44 6.01604C193.791 6.01604 193.95 6.08072 193.95 6.27209C193.95 6.39878 193.823 6.46347 193.696 6.46347C193.473 6.46347 193.281 6.49581 192.901 6.5578C192.042 6.71683 191.785 7.25859 191.723 8.37178C191.659 9.39062 191.659 10.2828 191.659 15.2503V20.854H191.656ZM195.19 1.68729C195.349 1.973 195.19 2.07003 195.063 2.07003C194.969 2.07003 194.648 2.00535 194.109 2.07003C192.548 2.22906 190.319 2.9622 189.268 3.40693C189.044 3.50396 188.853 3.56596 188.791 3.56596C188.726 3.56596 188.632 3.50127 188.632 3.37459C188.632 3.28025 188.694 3.21556 188.856 3.12122C190.001 2.32609 192.963 0.541767 193.187 0.415085C193.729 0.0970328 193.92 0 194.079 0C194.174 0 194.238 0.0646885 194.397 0.285708C194.618 0.606455 194.839 1.05119 195.19 1.68729Z" fill="white"></path><path d="M210.473 5.57129C217.637 5.57129 222.985 10.0914 222.985 17.5117C222.985 24.6436 217.955 30.533 210.281 30.533C201.556 30.533 197.928 23.7515 197.928 18.0211C197.928 12.8622 201.686 5.57129 210.473 5.57129ZM211.141 29.3228C214.006 29.3228 219.928 27.6678 219.928 18.4012C219.928 10.7599 215.278 6.65213 210.249 6.65213C204.931 6.65213 200.953 10.1534 200.953 17.1263C200.953 24.5493 205.411 29.3228 211.141 29.3228Z" fill="white"></path><path d="M225.275 8.2073L224.297 8.51187L224.157 8.03749L225.426 7.59814H225.863V12.8298H225.275V8.2073Z" fill="white"></path><path d="M228.792 12.919C228.45 12.919 228.153 12.8597 227.903 12.7384C227.649 12.6198 227.412 12.4688 227.191 12.2882L227.533 11.8354C227.746 12.0241 227.954 12.1643 228.156 12.2559C228.358 12.3475 228.577 12.3934 228.808 12.3934C229.04 12.3934 229.253 12.3368 229.447 12.2236C229.641 12.1103 229.803 11.9513 229.94 11.7519C230.075 11.5497 230.18 11.3098 230.253 11.0295C230.326 10.7492 230.358 10.4419 230.353 10.1104C230.21 10.3368 230.019 10.5336 229.781 10.6953C229.544 10.8597 229.245 10.9406 228.884 10.9406C228.617 10.9406 228.372 10.9001 228.151 10.822C227.927 10.7438 227.738 10.6306 227.579 10.4877C227.42 10.3449 227.296 10.1724 227.207 9.97563C227.118 9.77886 227.075 9.56324 227.075 9.32874V9.31526C227.075 9.06729 227.121 8.83549 227.213 8.62256C227.304 8.40693 227.431 8.22095 227.595 8.06192C227.76 7.9029 227.957 7.77891 228.186 7.68727C228.415 7.59563 228.668 7.5498 228.946 7.5498C229.242 7.5498 229.501 7.59563 229.725 7.68996C229.948 7.7843 230.143 7.91368 230.312 8.08349C230.509 8.28025 230.668 8.53631 230.784 8.84627C230.9 9.15893 230.959 9.57402 230.959 10.0915V10.1077C230.959 10.5174 230.908 10.8974 230.803 11.2424C230.698 11.5901 230.552 11.8866 230.361 12.1319C230.169 12.3772 229.943 12.5713 229.679 12.7114C229.407 12.8489 229.113 12.919 228.792 12.919ZM228.948 10.4338C229.145 10.4338 229.326 10.4015 229.485 10.3341C229.647 10.2667 229.781 10.1805 229.892 10.0727C230.002 9.96484 230.089 9.84086 230.148 9.7007C230.207 9.56054 230.237 9.41499 230.237 9.26675V9.25327C230.237 9.09155 230.205 8.93791 230.14 8.79506C230.075 8.65221 229.986 8.52822 229.868 8.4204C229.752 8.31529 229.612 8.23173 229.45 8.16974C229.288 8.10774 229.107 8.07809 228.916 8.07809C228.722 8.07809 228.55 8.11044 228.393 8.17782C228.237 8.24521 228.105 8.33415 228 8.44466C227.895 8.55517 227.811 8.68455 227.754 8.8301C227.698 8.97565 227.668 9.12928 227.668 9.29101V9.30448C227.668 9.4662 227.698 9.61984 227.76 9.76C227.822 9.90016 227.908 10.0188 228.019 10.1185C228.129 10.2182 228.264 10.2937 228.423 10.3503C228.587 10.4042 228.76 10.4338 228.948 10.4338Z" fill="white"></path><path d="M233.736 12.9025C233.458 12.9025 233.202 12.8675 232.965 12.7947C232.728 12.7219 232.52 12.6222 232.348 12.4928C232.173 12.3634 232.035 12.2098 231.938 12.0292C231.838 11.8486 231.79 11.6491 231.79 11.4308V11.4173C231.79 11.1047 231.89 10.8432 232.089 10.6303C232.289 10.4174 232.545 10.2556 232.855 10.1397C232.736 10.0858 232.623 10.0185 232.515 9.94299C232.407 9.86752 232.31 9.78127 232.229 9.68423C232.148 9.5872 232.084 9.47669 232.038 9.3554C231.992 9.23141 231.968 9.09665 231.968 8.9484V8.93493C231.968 8.73816 232.016 8.55488 232.113 8.38507C232.21 8.21796 232.34 8.06972 232.499 7.94842C232.66 7.82444 232.846 7.7301 233.062 7.66272C233.278 7.59533 233.504 7.56299 233.741 7.56299C233.979 7.56299 234.205 7.59533 234.421 7.66272C234.636 7.7301 234.825 7.82444 234.984 7.94842C235.146 8.07241 235.272 8.21796 235.369 8.38507C235.466 8.55218 235.515 8.73547 235.515 8.93493V8.9484C235.515 9.09665 235.491 9.23411 235.445 9.3554C235.399 9.47939 235.332 9.5899 235.251 9.68423C235.17 9.78127 235.073 9.86752 234.962 9.94299C234.852 10.0212 234.739 10.0858 234.62 10.1397C234.927 10.253 235.181 10.4174 235.383 10.6303C235.585 10.8432 235.687 11.102 235.687 11.4093V11.4254C235.687 11.6491 235.639 11.8486 235.539 12.0292C235.439 12.2098 235.305 12.3634 235.129 12.4928C234.954 12.6222 234.747 12.7219 234.512 12.7947C234.27 12.8675 234.014 12.9025 233.736 12.9025ZM233.736 12.3904C233.949 12.3904 234.14 12.3634 234.307 12.3122C234.477 12.261 234.617 12.1909 234.736 12.102C234.852 12.013 234.941 11.9106 235.003 11.7947C235.065 11.6788 235.097 11.5521 235.097 11.42V11.4039C235.097 11.261 235.062 11.1289 234.989 11.0077C234.916 10.8864 234.819 10.7839 234.698 10.695C234.577 10.6087 234.434 10.5414 234.267 10.4901C234.1 10.4416 233.925 10.4147 233.736 10.4147C233.547 10.4147 233.369 10.4389 233.205 10.4901C233.038 10.5387 232.895 10.6087 232.771 10.695C232.647 10.7812 232.55 10.8864 232.48 11.0077C232.41 11.1289 232.375 11.261 232.375 11.4039V11.42C232.375 11.5521 232.404 11.6788 232.466 11.7947C232.528 11.9106 232.617 12.013 232.733 12.102C232.849 12.1909 232.992 12.261 233.162 12.3122C233.332 12.3661 233.523 12.3904 233.736 12.3904ZM233.741 9.9349C233.903 9.9349 234.059 9.91064 234.205 9.86482C234.35 9.819 234.477 9.75431 234.582 9.67076C234.69 9.5899 234.774 9.49017 234.836 9.37427C234.898 9.25837 234.927 9.12899 234.927 8.98344V8.96996C234.927 8.84059 234.898 8.72199 234.838 8.61418C234.779 8.50636 234.695 8.40933 234.59 8.32847C234.485 8.24761 234.359 8.18292 234.213 8.13979C234.067 8.09397 233.911 8.07241 233.741 8.07241C233.574 8.07241 233.415 8.09397 233.27 8.13979C233.124 8.18562 232.997 8.24761 232.892 8.32577C232.784 8.40394 232.704 8.50097 232.644 8.61148C232.585 8.72199 232.555 8.84328 232.555 8.96996V8.98344C232.555 9.1263 232.585 9.25567 232.647 9.37427C232.709 9.49017 232.793 9.5899 232.9 9.67076C233.005 9.75162 233.132 9.81631 233.278 9.86482C233.423 9.91334 233.577 9.9349 233.741 9.9349Z" fill="white"></path><path d="M237.405 8.2073L236.426 8.51187L236.286 8.03749L237.556 7.59814H237.992V12.8298H237.405V8.2073Z" fill="white"></path></g></g><defs><clipPath id="clip0_81_3805"><rect width="238" height="30.7271" fill="white"></rect></clipPath></defs></svg> 